<svg width="297" height="77" viewBox="0 0 297 77" fill="none" xmlns="http://www.w3.org/2000/svg">
<g filter="url(#filter0_d_0_1)">
<mask id="mask0_0_1" style="mask-type:luminance" maskUnits="userSpaceOnUse" x="212" y="0" width="81" height="69">
<path d="M292.36 0H212V68.23H292.36V0Z" fill="white"/>
</mask>
<g mask="url(#mask0_0_1)">
<path d="M230.121 11.8799V50.6199C230.096 53.0553 229.131 55.3824 227.434 57.0956C225.738 58.8088 223.447 59.7698 221.061 59.7698C218.674 59.7698 216.383 58.8088 214.687 57.0956C212.99 55.3824 212.025 53.0553 212 50.6199V11.8799C212.002 9.42808 212.957 7.07726 214.657 5.34448C216.357 3.6117 218.662 2.63886 221.065 2.63992C222.568 2.63585 224.047 3.01756 225.367 3.74993C225.388 3.75893 225.397 3.76993 225.406 3.76993C225.411 3.77563 225.418 3.7792 225.426 3.77993C226.177 4.19824 226.864 4.72726 227.464 5.34993C228.307 6.20627 228.975 7.22394 229.431 8.34454C229.887 9.46514 230.121 10.6666 230.121 11.8799Z" fill="#171616"/>
<path d="M250.827 20.25V58.98C250.827 60.1941 250.593 61.3963 250.138 62.5179C249.682 63.6396 249.015 64.6587 248.174 65.5172C247.333 66.3757 246.334 67.0567 245.235 67.5213C244.135 67.9859 242.957 68.225 241.767 68.225C240.578 68.225 239.399 67.9859 238.3 67.5213C237.201 67.0567 236.202 66.3757 235.361 65.5172C234.52 64.6587 233.852 63.6396 233.397 62.5179C232.942 61.3963 232.707 60.1941 232.707 58.98V20.25C232.707 19.0352 232.941 17.8322 233.397 16.7099C233.852 15.5875 234.52 14.5677 235.362 13.7087C236.204 12.8497 237.203 12.1683 238.303 11.7036C239.403 11.2388 240.582 10.9997 241.772 11C242.096 11 242.409 11.02 242.713 11.049H242.734C244.957 11.2956 247.012 12.371 248.506 14.0688C249.999 15.7666 250.826 17.9684 250.827 20.25Z" fill="#1A1A19"/>
<path d="M271.653 9.23989V47.9799C271.653 50.4318 270.698 52.7833 268.999 54.5171C267.3 56.2509 264.995 57.2249 262.592 57.2249C260.19 57.2249 257.885 56.2509 256.186 54.5171C254.487 52.7833 253.532 50.4318 253.532 47.9799V9.23989C253.532 8.02563 253.767 6.82328 254.223 5.70158C254.678 4.57988 255.346 3.56083 256.188 2.70268C257.03 1.84454 258.029 1.16414 259.129 0.700371C260.229 0.236606 261.407 -0.00142473 262.597 -0.000110598C262.971 -0.00404107 263.345 0.0227117 263.715 0.0798893H263.734C265.727 0.325896 267.58 1.24872 268.997 2.69989C269.839 3.55819 270.507 4.57766 270.963 5.69991C271.419 6.82215 271.653 8.02511 271.653 9.23989Z" fill="#141313"/>
<path d="M292.36 19.8089V58.5399C292.36 59.754 292.125 60.9562 291.67 62.0778C291.215 63.1995 290.547 64.2186 289.706 65.0771C288.865 65.9356 287.866 66.6166 286.767 67.0812C285.668 67.5458 284.489 67.7849 283.3 67.7849C282.11 67.7849 280.932 67.5458 279.833 67.0812C278.733 66.6166 277.734 65.9356 276.893 65.0771C276.052 64.2186 275.385 63.1995 274.929 62.0778C274.474 60.9562 274.24 59.754 274.24 58.5399V19.8089C274.239 18.5941 274.474 17.3913 274.929 16.2689C275.385 15.1466 276.053 14.1268 276.894 13.2679C277.736 12.4089 278.736 11.7276 279.835 11.2628C280.935 10.798 282.114 10.5588 283.305 10.5589C284.504 10.5539 285.691 10.7993 286.793 11.2799H286.803C286.808 11.2856 286.815 11.2892 286.823 11.2899C287.902 11.7499 288.881 12.4228 289.704 13.2699C290.549 14.1261 291.219 15.1451 291.675 16.2676C292.131 17.3901 292.363 18.5938 292.36 19.8089Z" fill="#1F1C1B"/>
<g style="mix-blend-mode:multiply" opacity="0.3">
<path d="M230.121 23.0298V50.6198C230.096 53.0552 229.131 55.3822 227.434 57.0954C225.738 58.8087 223.447 59.7696 221.061 59.7696C218.674 59.7696 216.383 58.8087 214.687 57.0954C212.99 55.3822 212.025 53.0552 212 50.6198V49.0298C212 49.0298 212.02 49.2588 212.059 49.6788C212.078 50.1088 212.137 50.7398 212.236 51.5088C212.403 52.4253 212.693 53.314 213.098 54.1498C213.813 55.6345 214.927 56.8813 216.31 57.7453C217.692 58.6092 219.287 59.0546 220.908 59.0298C221.643 59.022 222.375 58.9178 223.084 58.7198C224.582 58.2894 225.933 57.4409 226.984 56.2698C228.061 55.0783 228.77 53.5897 229.023 51.9898C229.042 51.7898 229.091 51.6298 229.101 51.3998L229.141 50.7198C229.16 50.3698 229.15 49.8398 229.16 49.4098C229.16 48.5098 229.17 47.5998 229.179 46.7098C229.179 44.9198 229.238 43.1598 229.259 41.4498C229.326 38.0398 229.434 34.8588 229.562 32.1298C229.798 26.6698 230.121 23.0298 230.121 23.0298Z" fill="black"/>
</g>
<g style="mix-blend-mode:overlay" opacity="0.6">
<path d="M225.407 3.77C225.067 3.65666 224.72 3.56318 224.369 3.49C223.463 3.27585 222.533 3.18838 221.605 3.23C221.313 3.24112 221.022 3.27118 220.734 3.32C220.43 3.35808 220.129 3.41485 219.832 3.49C217.811 3.95659 216.007 5.11817 214.725 6.78C214.278 7.33883 213.903 7.95343 213.608 8.609C213.327 9.24371 213.113 9.90755 212.971 10.589C212.899 10.9357 212.846 11.2862 212.813 11.639L212.784 11.909C212.784 11.919 212.774 12.069 212.764 12.139C212.755 12.319 212.745 12.499 212.726 12.669C212.686 13.369 212.617 14.029 212.559 14.639C212.439 16.001 212.253 17.3561 212 18.699V11.879C212.002 10.275 212.412 8.69914 213.191 7.30596C213.97 5.91279 215.091 4.75023 216.443 3.9324C217.795 3.11457 219.332 2.66958 220.904 2.64111C222.476 2.61264 224.028 3.00166 225.407 3.77Z" fill="white"/>
</g>
<g style="mix-blend-mode:multiply" opacity="0.3">
<path d="M250.827 31.3589V58.9799C250.827 60.194 250.593 61.3961 250.138 62.5178C249.682 63.6395 249.015 64.6586 248.174 65.5171C247.333 66.3756 246.334 67.0565 245.235 67.5212C244.135 67.9858 242.957 68.2249 241.767 68.2249C240.578 68.2249 239.399 67.9858 238.3 67.5212C237.201 67.0565 236.202 66.3756 235.361 65.5171C234.52 64.6586 233.852 63.6395 233.397 62.5178C232.942 61.3961 232.707 60.194 232.707 58.9799V57.8599C232.707 57.8599 232.727 58.0899 232.766 58.5089C232.801 59.1146 232.883 59.7165 233.011 60.3089C233.454 62.368 234.579 64.2085 236.196 65.5199C237.244 66.3621 238.468 66.9471 239.773 67.2299C240.107 67.2987 240.444 67.3488 240.782 67.3799C241.154 67.406 241.527 67.4127 241.9 67.3999C242.638 67.3586 243.369 67.2273 244.076 67.0089C245.542 66.5183 246.849 65.6299 247.858 64.4389C248.893 63.2276 249.554 61.7319 249.759 60.1389C249.817 59.728 249.85 59.3139 249.857 58.8989L249.867 57.5479C249.867 56.6479 249.877 55.7479 249.888 54.8589C249.888 53.0889 249.945 51.3389 249.966 49.6389C250.034 46.2579 250.141 43.0989 250.269 40.3889C250.504 34.9699 250.827 31.3589 250.827 31.3589Z" fill="black"/>
</g>
<g style="mix-blend-mode:overlay" opacity="0.6">
<path d="M242.713 11.049C242.625 11.07 242.282 11.12 241.743 11.2C241.439 11.28 241.068 11.34 240.665 11.46C240.215 11.5939 239.774 11.7538 239.342 11.939C238.847 12.1625 238.368 12.4236 237.911 12.72C237.417 13.0537 236.949 13.4247 236.51 13.83C236.061 14.2737 235.654 14.7591 235.294 15.28C234.924 15.8084 234.609 16.3748 234.354 16.97C234.105 17.566 233.915 18.1857 233.786 18.82C233.721 19.1371 233.671 19.4576 233.638 19.78L233.589 20.259L233.57 20.78C233.501 22.15 233.393 23.429 233.266 24.53C233.147 25.763 232.96 26.9882 232.707 28.2V20.25C232.707 19.0352 232.941 17.8322 233.397 16.7099C233.852 15.5875 234.52 14.5677 235.362 13.7087C236.204 12.8497 237.203 12.1683 238.303 11.7036C239.403 11.2388 240.582 10.9997 241.772 11C242.096 11 242.409 11.02 242.713 11.049Z" fill="white"/>
</g>
<g style="mix-blend-mode:multiply" opacity="0.3">
<path d="M271.653 13.2V47.9799C271.653 50.4319 270.698 52.7834 268.999 54.5172C267.3 56.2509 264.995 57.225 262.592 57.225C260.19 57.225 257.885 56.2509 256.186 54.5172C254.487 52.7834 253.532 50.4319 253.532 47.9799V47.2C253.532 47.2 253.552 47.45 253.591 47.92C253.644 48.5928 253.759 49.259 253.934 49.91C254.216 50.9018 254.66 51.8379 255.247 52.679C255.984 53.753 256.945 54.6477 258.06 55.299C259.354 56.0659 260.826 56.4666 262.323 56.46C263.116 56.4691 263.907 56.3544 264.666 56.1199C265.465 55.8936 266.226 55.5428 266.92 55.08C268.365 54.1117 269.481 52.711 270.115 51.07L270.34 50.45L270.497 49.799C270.556 49.5799 270.566 49.3699 270.605 49.16C270.647 48.9325 270.667 48.7014 270.664 48.4699C270.713 47.5699 270.664 46.48 270.673 45.5C270.683 43.48 270.693 41.4599 270.713 39.4699C270.713 37.4799 270.771 35.53 270.791 33.64C270.86 29.85 270.967 26.3199 271.095 23.2899C271.329 17.2299 271.653 13.2 271.653 13.2Z" fill="black"/>
</g>
<g style="mix-blend-mode:overlay" opacity="0.6">
<path d="M263.715 0.0798893C263.587 0.0998893 263.264 0.149889 262.784 0.209889C262.49 0.229889 262.107 0.358889 261.696 0.428889C261.244 0.556067 260.799 0.706595 260.363 0.879889C259.862 1.09294 259.377 1.34363 258.913 1.62989C258.406 1.94614 257.927 2.30755 257.483 2.70989C257.247 2.90989 257.041 3.14989 256.826 3.36989C256.63 3.62989 256.404 3.85889 256.227 4.12989C255.844 4.65141 255.519 5.21449 255.257 5.80889C254.987 6.39793 254.78 7.01522 254.64 7.64989C254.601 7.96989 254.503 8.20989 254.473 8.58989L254.424 9.10889L254.414 9.23989V9.24989L254.405 9.25889V9.32989L254.395 9.58989C254.326 10.9699 254.218 12.2499 254.091 13.3499C253.972 14.5862 253.785 15.8148 253.532 17.0299V9.23989C253.532 8.02563 253.767 6.82328 254.223 5.70158C254.678 4.57988 255.346 3.56083 256.188 2.70268C257.03 1.84454 258.029 1.16414 259.129 0.700371C260.229 0.236606 261.407 -0.00142473 262.597 -0.000110598C262.971 -0.00404107 263.345 0.0227117 263.715 0.0798893Z" fill="white"/>
</g>
<g style="mix-blend-mode:overlay" opacity="0.6">
<path d="M286.793 11.2799C286.705 11.2589 286.352 11.1889 285.794 11.1199C285.47 11.0799 285.078 11.0589 284.637 11.0489C284.146 11.047 283.655 11.0774 283.167 11.1399C282.605 11.2254 282.048 11.3487 281.501 11.5089C280.912 11.7028 280.341 11.9508 279.796 12.2499C278.631 12.9006 277.618 13.8013 276.827 14.8899C276.422 15.4348 276.08 16.0253 275.808 16.6499C275.545 17.2538 275.345 17.8838 275.21 18.5299C275.136 18.8557 275.087 19.1866 275.063 19.5199L275.033 19.7699L275.024 19.8199L275.014 19.8589L275.004 19.9899C274.994 20.1599 274.984 20.3199 274.975 20.4899C274.926 21.1499 274.867 21.7799 274.798 22.3499C274.679 23.6425 274.493 24.9276 274.24 26.1999V19.8089C274.239 18.5941 274.474 17.3913 274.929 16.2689C275.385 15.1466 276.053 14.1268 276.894 13.2679C277.736 12.4089 278.736 11.7276 279.835 11.2628C280.935 10.798 282.114 10.5588 283.305 10.5589C284.504 10.5539 285.691 10.7993 286.793 11.2799Z" fill="white"/>
</g>
<g style="mix-blend-mode:multiply" opacity="0.3">
<path d="M292.36 33.7V58.54C292.36 59.754 292.125 60.9562 291.67 62.0779C291.215 63.1995 290.547 64.2187 289.706 65.0772C288.865 65.9356 287.866 66.6166 286.767 67.0812C285.668 67.5458 284.489 67.785 283.3 67.785C282.11 67.785 280.932 67.5458 279.833 67.0812C278.733 66.6166 277.734 65.9356 276.893 65.0772C276.052 64.2187 275.385 63.1995 274.929 62.0779C274.474 60.9562 274.24 59.754 274.24 58.54C274.24 58.54 274.269 58.75 274.328 59.15C274.352 59.3871 274.398 59.6214 274.465 59.85C274.526 60.1664 274.611 60.4773 274.72 60.78C275.217 62.3142 276.107 63.6849 277.297 64.7504C278.488 65.8158 279.936 66.5372 281.492 66.84C281.815 66.9 282.119 66.92 282.442 66.96L282.991 66.97H283.354L283.481 66.95C284.172 66.9133 284.856 66.7924 285.519 66.59C286.89 66.1568 288.129 65.3714 289.116 64.309C289.619 63.7633 290.054 63.1556 290.41 62.5C290.747 61.8354 291.001 61.1298 291.164 60.4C291.252 60.045 291.314 59.6841 291.35 59.32L291.39 58.7V58.54L291.399 58.429V58.1199C291.399 57.2799 291.409 56.439 291.419 55.61C291.419 53.96 291.478 52.32 291.497 50.75C291.566 47.59 291.674 44.64 291.801 42.12C292.036 37.059 292.36 33.7 292.36 33.7Z" fill="black"/>
</g>
</g>
</g>
<g style="mix-blend-mode:hard-light">
<path d="M7.39344 57C5.15677 57 3.4151 56.4133 2.16844 55.24C0.921771 54.03 0.298438 52.38 0.298438 50.29V25.1C0.298438 23.0467 0.903438 21.4333 2.11344 20.26C3.3601 19.0867 5.08344 18.5 7.28344 18.5H14.9834C18.7968 18.5 22.1151 19.3067 24.9384 20.92C27.7984 22.4967 29.9984 24.7333 31.5384 27.63C33.0784 30.5267 33.8484 33.9183 33.8484 37.805C33.8484 41.6917 33.0784 45.0833 31.5384 47.98C29.9984 50.84 27.7984 53.0583 24.9384 54.635C22.1151 56.2117 18.7968 57 14.9834 57H7.39344ZM14.4334 53.59C19.2734 53.59 23.0134 52.215 25.6534 49.465C28.3301 46.715 29.6684 42.8283 29.6684 37.805C29.6684 32.7817 28.3301 28.8767 25.6534 26.09C22.9768 23.3033 19.2368 21.91 14.4334 21.91H7.33844C6.45844 21.91 5.74344 22.2033 5.19344 22.79C4.6801 23.3767 4.42344 24.1467 4.42344 25.1V50.4C4.42344 51.3533 4.6801 52.1233 5.19344 52.71C5.74344 53.2967 6.45844 53.59 7.33844 53.59H14.4334ZM42.8736 56.945C41.9936 56.945 41.2419 56.6517 40.6186 56.065C39.9953 55.4417 39.6836 54.7267 39.6836 53.92C39.6836 53.0767 39.9953 52.3433 40.6186 51.72C41.2419 51.0967 41.9936 50.785 42.8736 50.785C43.7169 50.785 44.4503 51.0967 45.0736 51.72C45.6969 52.3433 46.0086 53.0767 46.0086 53.92C46.0086 54.7267 45.6969 55.4417 45.0736 56.065C44.4503 56.6517 43.7169 56.945 42.8736 56.945ZM66.4643 57.55C64.2276 57.55 62.4493 56.6883 61.1293 54.965C59.8093 53.205 58.5626 50.3817 57.3893 46.495L49.5243 20.425C49.4143 20.0217 49.3593 19.6917 49.3593 19.435C49.3593 18.445 50.001 17.95 51.2843 17.95C51.9443 17.95 52.4393 18.0967 52.7693 18.39C53.0993 18.6467 53.3743 19.16 53.5943 19.93L61.4043 46.11C62.2843 49.0433 63.091 51.115 63.8243 52.325C64.5943 53.4983 65.4743 54.085 66.4643 54.085C67.4176 54.085 68.2793 53.48 69.0493 52.27C69.8193 51.06 70.6443 49.0067 71.5243 46.11L79.3343 19.875C79.5543 19.1417 79.8293 18.6467 80.1593 18.39C80.4893 18.0967 80.9843 17.95 81.6443 17.95C82.9276 17.95 83.5693 18.445 83.5693 19.435C83.5693 19.6917 83.5143 20.0217 83.4043 20.425L75.4843 46.495C74.2376 50.565 72.936 53.425 71.5793 55.075C70.2593 56.725 68.5543 57.55 66.4643 57.55ZM107.77 57.55C104.066 57.55 100.73 56.7433 97.7597 55.13C94.7897 53.48 92.4431 51.1517 90.7197 48.145C89.0331 45.1383 88.1897 41.6733 88.1897 37.75C88.1897 33.79 89.0331 30.325 90.7197 27.355C92.4431 24.3483 94.7897 22.0383 97.7597 20.425C100.73 18.775 104.066 17.95 107.77 17.95C111.473 17.95 114.81 18.775 117.78 20.425C120.75 22.0383 123.078 24.3483 124.765 27.355C126.488 30.325 127.35 33.79 127.35 37.75C127.35 41.6733 126.488 45.1383 124.765 48.145C123.078 51.1517 120.75 53.48 117.78 55.13C114.81 56.7433 111.473 57.55 107.77 57.55ZM107.77 54.03C110.74 54.03 113.38 53.3883 115.69 52.105C118.036 50.8217 119.87 48.97 121.19 46.55C122.546 44.0933 123.225 41.16 123.225 37.75C123.225 34.3033 122.528 31.3517 121.135 28.895C119.778 26.4383 117.908 24.5867 115.525 23.34C113.178 22.0933 110.556 21.47 107.66 21.47C104.726 21.47 102.086 22.1117 99.7397 23.395C97.4297 24.6783 95.6147 26.5483 94.2947 29.005C92.9747 31.4617 92.3147 34.3767 92.3147 37.75C92.3147 41.16 92.9747 44.0933 94.2947 46.55C95.6514 48.97 97.4847 50.8217 99.7947 52.105C102.141 53.3883 104.8 54.03 107.77 54.03ZM145.933 57.55C145.273 57.55 144.76 57.3667 144.393 57C144.063 56.5967 143.898 56.0467 143.898 55.35V21.91H131.303C130.643 21.91 130.112 21.7817 129.708 21.525C129.342 21.2317 129.158 20.81 129.158 20.26C129.158 19.0867 129.873 18.5 131.303 18.5H160.673C162.103 18.5 162.818 19.0867 162.818 20.26C162.818 20.7733 162.635 21.1767 162.268 21.47C161.902 21.7633 161.37 21.91 160.673 21.91H148.078V55.35C148.078 56.0467 147.877 56.5967 147.473 57C147.107 57.3667 146.593 57.55 145.933 57.55ZM176.69 57C174.454 57 172.712 56.4133 171.465 55.24C170.219 54.0667 169.595 52.4167 169.595 50.29V25.1C169.595 23.0467 170.2 21.4333 171.41 20.26C172.657 19.0867 174.38 18.5 176.58 18.5H193.63C195.06 18.5 195.775 19.0867 195.775 20.26C195.775 20.7733 195.592 21.1767 195.225 21.47C194.859 21.7633 194.327 21.91 193.63 21.91H176.635C175.755 21.91 175.04 22.2033 174.49 22.79C173.977 23.3767 173.72 24.1467 173.72 25.1V35.605H189.45C190.88 35.605 191.595 36.1917 191.595 37.365C191.595 37.915 191.394 38.3367 190.99 38.63C190.624 38.9233 190.11 39.07 189.45 39.07H173.72V50.4C173.72 51.3533 173.977 52.1233 174.49 52.71C175.04 53.2967 175.755 53.59 176.635 53.59H194.84C196.27 53.59 196.985 54.1583 196.985 55.295C196.985 55.845 196.784 56.2667 196.38 56.56C196.014 56.8533 195.5 57 194.84 57H176.69Z" fill="black"/>
</g>
<defs>
<filter id="filter0_d_0_1" x="208" y="0" width="88.3598" height="76.225" filterUnits="userSpaceOnUse" color-interpolation-filters="sRGB">
<feFlood flood-opacity="0" result="BackgroundImageFix"/>
<feColorMatrix in="SourceAlpha" type="matrix" values="0 0 0 0 0 0 0 0 0 0 0 0 0 0 0 0 0 0 127 0" result="hardAlpha"/>
<feOffset dy="4"/>
<feGaussianBlur stdDeviation="2"/>
<feComposite in2="hardAlpha" operator="out"/>
<feColorMatrix type="matrix" values="0 0 0 0 0 0 0 0 0 0 0 0 0 0 0 0 0 0 0.25 0"/>
<feBlend mode="normal" in2="BackgroundImageFix" result="effect1_dropShadow_0_1"/>
<feBlend mode="normal" in="SourceGraphic" in2="effect1_dropShadow_0_1" result="shape"/>
</filter>
</defs>
</svg>
