<svg width="81" height="69" viewBox="0 0 81 69" fill="none" xmlns="http://www.w3.org/2000/svg">
<g filter="url(#filter0_d_2_27)">
<mask id="mask0_2_27" style="mask-type:luminance" maskUnits="userSpaceOnUse" x="0" y="0" width="81" height="69">
<path d="M80.36 0H0V68.23H80.36V0Z" fill="white"/>
</mask>
<g mask="url(#mask0_2_27)">
<path d="M18.1212 11.8799V50.6199C18.0964 53.0553 17.1308 55.3824 15.4343 57.0956C13.7378 58.8088 11.4474 59.7698 9.06059 59.7698C6.67376 59.7698 4.38333 58.8088 2.68685 57.0956C0.990349 55.3824 0.024822 53.0553 0 50.6199V11.8799C0.00155902 9.42808 0.957431 7.07726 2.65739 5.34448C4.35735 3.6117 6.66219 2.63886 9.065 2.63992C10.5676 2.63585 12.047 3.01756 13.3672 3.74993C13.3878 3.75893 13.3966 3.76993 13.4064 3.76993C13.4115 3.77563 13.4185 3.7792 13.426 3.77993C14.1774 4.19824 14.8642 4.72726 15.4644 5.34993C16.3068 6.20627 16.9751 7.22394 17.4311 8.34454C17.887 9.46514 18.1215 10.6666 18.1212 11.8799Z" fill="#171616"/>
<path d="M38.8275 20.25V58.98C38.8275 60.1941 38.5932 61.3963 38.1378 62.5179C37.6825 63.6396 37.0152 64.6587 36.1739 65.5172C35.3325 66.3757 34.3337 67.0567 33.2345 67.5213C32.1353 67.9859 30.9572 68.225 29.7674 68.225C28.5776 68.225 27.3994 67.9859 26.3003 67.5213C25.201 67.0567 24.2023 66.3757 23.3609 65.5172C22.5196 64.6587 21.8522 63.6396 21.3969 62.5179C20.9416 61.3963 20.7073 60.1941 20.7073 58.98V20.25C20.707 19.0352 20.9413 17.8322 21.3968 16.7099C21.8522 15.5875 22.52 14.5677 23.3618 13.7087C24.2036 12.8497 25.203 12.1683 26.3029 11.7036C27.4029 11.2388 28.5818 10.9997 29.7723 11C30.0957 11 30.4093 11.02 30.7131 11.049H30.7337C32.9565 11.2956 35.0119 12.371 36.5056 14.0688C37.9993 15.7666 38.8261 17.9684 38.8275 20.25Z" fill="#1A1A19"/>
<path d="M59.6525 9.23989V47.9799C59.6525 50.4318 58.698 52.7833 56.9989 54.5171C55.2997 56.2509 52.9953 57.2249 50.5924 57.2249C48.1895 57.2249 45.8851 56.2509 44.1859 54.5171C42.4868 52.7833 41.5323 50.4318 41.5323 47.9799V9.23989C41.5323 8.02563 41.7668 6.82328 42.2225 5.70158C42.6782 4.57988 43.3461 3.56083 44.188 2.70268C45.0298 1.84454 46.0292 1.16414 47.129 0.700371C48.2287 0.236606 49.4073 -0.00142473 50.5973 -0.000110598C50.9712 -0.00404107 51.3447 0.0227117 51.7145 0.0798893H51.7341C53.7267 0.325896 55.5803 1.24872 56.9967 2.69989C57.8391 3.55819 58.5074 4.57766 58.9631 5.69991C59.4189 6.82215 59.6531 8.02511 59.6525 9.23989Z" fill="#141313"/>
<path d="M80.3598 19.8089V58.5399C80.3598 59.754 80.1254 60.9562 79.6701 62.0778C79.2148 63.1995 78.5474 64.2186 77.7062 65.0771C76.8648 65.9356 75.866 66.6166 74.7668 67.0812C73.6676 67.5458 72.4894 67.7849 71.2997 67.7849C70.1099 67.7849 68.9317 67.5458 67.8326 67.0812C66.7333 66.6166 65.7345 65.9356 64.8932 65.0771C64.0519 64.2186 63.3845 63.1995 62.9292 62.0778C62.4739 60.9562 62.2396 59.754 62.2396 58.5399V19.8089C62.2394 18.5941 62.4738 17.3913 62.9293 16.2689C63.3848 15.1466 64.0526 14.1268 64.8943 13.2679C65.7361 12.4089 66.7355 11.7276 67.8354 11.2628C68.9353 10.798 70.1141 10.5588 71.3046 10.5589C72.5035 10.5539 73.6908 10.7993 74.7934 11.2799H74.8032C74.8083 11.2856 74.8153 11.2892 74.8228 11.2899C75.9016 11.7499 76.8807 12.4228 77.704 13.2699C78.5489 14.1261 79.2187 15.1451 79.6747 16.2676C80.1306 17.3901 80.3634 18.5938 80.3598 19.8089Z" fill="#1F1C1B"/>
<g style="mix-blend-mode:multiply" opacity="0.3">
<path d="M18.1212 23.0298V50.6198C18.0964 53.0552 17.1308 55.3822 15.4343 57.0954C13.7378 58.8087 11.4474 59.7696 9.06059 59.7696C6.67376 59.7696 4.38333 58.8087 2.68685 57.0954C0.990349 55.3822 0.024822 53.0552 0 50.6198V49.0298C0 49.0298 0.0196014 49.2588 0.0588014 49.6788C0.0784014 50.1088 0.137201 50.7398 0.236181 51.5088C0.403141 52.4253 0.693002 53.314 1.0976 54.1498C1.81296 55.6345 2.92683 56.8813 4.30956 57.7453C5.69229 58.6092 7.28704 59.0546 8.9082 59.0298C9.64342 59.022 10.3746 58.9178 11.0838 58.7198C12.582 58.2894 13.9329 57.4409 14.9842 56.2698C16.0608 55.0783 16.7698 53.5897 17.0226 51.9898C17.0422 51.7898 17.0912 51.6298 17.101 51.3998L17.1412 50.7198C17.1598 50.3698 17.15 49.8398 17.1598 49.4098C17.1598 48.5098 17.1696 47.5998 17.1794 46.7098C17.1794 44.9198 17.2382 43.1598 17.2588 41.4498C17.3264 38.0398 17.4342 34.8588 17.5616 32.1298C17.7978 26.6698 18.1212 23.0298 18.1212 23.0298Z" fill="black"/>
</g>
<g style="mix-blend-mode:overlay" opacity="0.6">
<path d="M13.4074 3.77C13.0666 3.65666 12.7198 3.56318 12.3686 3.49C11.4632 3.27585 10.5334 3.18838 9.60498 3.23C9.313 3.24112 9.022 3.27118 8.73376 3.32C8.43015 3.35808 8.12906 3.41485 7.83216 3.49C5.81051 3.95659 4.00749 5.11817 2.72538 6.78C2.27843 7.33883 1.90302 7.95343 1.60818 8.609C1.32669 9.24371 1.11313 9.90755 0.971181 10.589C0.899088 10.9357 0.846406 11.2862 0.813398 11.639L0.783999 11.909C0.783999 11.919 0.774199 12.069 0.764399 12.139C0.754599 12.319 0.744801 12.499 0.726181 12.669C0.686001 13.369 0.6174 14.029 0.5586 14.639C0.439195 16.001 0.25276 17.3561 0 18.699V11.879C0.00180945 10.275 0.412321 8.69914 1.19124 7.30596C1.97015 5.91279 3.0907 4.75023 4.4429 3.9324C5.79509 3.11457 7.33246 2.66958 8.90408 2.64111C10.4757 2.61264 12.0275 3.00166 13.4074 3.77Z" fill="white"/>
</g>
<g style="mix-blend-mode:multiply" opacity="0.3">
<path d="M38.8275 31.3589V58.9799C38.8275 60.194 38.5932 61.3961 38.1378 62.5178C37.6825 63.6395 37.0152 64.6586 36.1739 65.5171C35.3325 66.3756 34.3337 67.0565 33.2345 67.5212C32.1353 67.9858 30.9572 68.2249 29.7674 68.2249C28.5776 68.2249 27.3994 67.9858 26.3003 67.5212C25.201 67.0565 24.2023 66.3756 23.3609 65.5171C22.5196 64.6586 21.8522 63.6395 21.3969 62.5178C20.9416 61.3961 20.7073 60.194 20.7073 58.9799V57.8599C20.7073 57.8599 20.7269 58.0899 20.7661 58.5089C20.8008 59.1146 20.8827 59.7165 21.0111 60.3089C21.4537 62.368 22.5786 64.2085 24.1961 65.5199C25.2442 66.3621 26.468 66.9471 27.7731 67.2299C28.1066 67.2987 28.4436 67.3488 28.7825 67.3799C29.1543 67.406 29.5272 67.4127 29.8997 67.3999C30.6379 67.3586 31.3686 67.2273 32.0763 67.0089C33.5421 66.5183 34.8494 65.6299 35.8581 64.4389C36.8926 63.2276 37.554 61.7319 37.7593 60.1389C37.8171 59.728 37.8499 59.3139 37.8573 58.8989L37.8671 57.5479C37.8671 56.6479 37.8769 55.7479 37.8877 54.8589C37.8877 53.0889 37.9455 51.3389 37.9661 49.6389C38.0337 46.2579 38.1415 43.0989 38.2689 40.3889C38.5041 34.9699 38.8275 31.3589 38.8275 31.3589Z" fill="black"/>
</g>
<g style="mix-blend-mode:overlay" opacity="0.6">
<path d="M30.7131 11.049C30.6249 11.07 30.2819 11.12 29.7429 11.2C29.4391 11.28 29.0677 11.34 28.6649 11.46C28.2153 11.5939 27.7736 11.7538 27.3419 11.939C26.8465 12.1625 26.3683 12.4236 25.9111 12.72C25.4174 13.0537 24.9489 13.4247 24.5097 13.83C24.0612 14.2737 23.6544 14.7591 23.2945 15.28C22.9242 15.8084 22.6088 16.3748 22.3537 16.97C22.1052 17.566 21.9151 18.1857 21.7863 18.82C21.7205 19.1371 21.6711 19.4576 21.6383 19.78L21.5893 20.259L21.5697 20.78C21.5011 22.15 21.3933 23.429 21.2659 24.53C21.1465 25.763 20.96 26.9882 20.7073 28.2V20.25C20.707 19.0352 20.9413 17.8322 21.3968 16.7099C21.8522 15.5875 22.52 14.5677 23.3618 13.7087C24.2036 12.8497 25.203 12.1683 26.3029 11.7036C27.4029 11.2388 28.5818 10.9997 29.7723 11C30.0957 11 30.4093 11.02 30.7131 11.049Z" fill="white"/>
</g>
<g style="mix-blend-mode:multiply" opacity="0.3">
<path d="M59.6525 13.2V47.9799C59.6525 50.4319 58.698 52.7834 56.9989 54.5172C55.2997 56.2509 52.9953 57.225 50.5924 57.225C48.1895 57.225 45.8851 56.2509 44.1859 54.5172C42.4868 52.7834 41.5323 50.4319 41.5323 47.9799V47.2C41.5323 47.2 41.5519 47.45 41.5911 47.92C41.6442 48.5928 41.759 49.259 41.9341 49.91C42.216 50.9018 42.66 51.8379 43.2473 52.679C43.9843 53.753 44.9447 54.6477 46.0599 55.299C47.3545 56.0659 48.826 56.4666 50.3229 56.46C51.1163 56.4691 51.9066 56.3544 52.6661 56.1199C53.4654 55.8936 54.2257 55.5428 54.9201 55.08C56.365 54.1117 57.4809 52.711 58.1149 51.07L58.3403 50.45L58.4971 49.799C58.5559 49.5799 58.5657 49.3699 58.6049 49.16C58.6469 48.9325 58.6666 48.7014 58.6637 48.4699C58.7127 47.5699 58.6637 46.48 58.6735 45.5C58.6833 43.48 58.6931 41.4599 58.7127 39.4699C58.7127 37.4799 58.7715 35.53 58.7911 33.64C58.8597 29.85 58.9675 26.3199 59.0949 23.2899C59.3291 17.2299 59.6525 13.2 59.6525 13.2Z" fill="black"/>
</g>
<g style="mix-blend-mode:overlay" opacity="0.6">
<path d="M51.7145 0.0798893C51.5871 0.0998893 51.2637 0.149889 50.7835 0.209889C50.4895 0.229889 50.1073 0.358889 49.6957 0.428889C49.2442 0.556067 48.7994 0.706595 48.3629 0.879889C47.8619 1.09294 47.3771 1.34363 46.9125 1.62989C46.4055 1.94614 45.9271 2.30755 45.4827 2.70989C45.2465 2.90989 45.0407 3.14989 44.8261 3.36989C44.6301 3.62989 44.4037 3.85889 44.2273 4.12989C43.8443 4.65141 43.519 5.21449 43.2571 5.80889C42.9865 6.39793 42.7795 7.01522 42.6397 7.64989C42.6005 7.96989 42.5025 8.20989 42.4731 8.58989L42.4241 9.10889L42.4143 9.23989V9.24989L42.4045 9.25889V9.32989L42.3947 9.58989C42.3261 10.9699 42.2183 12.2499 42.0909 13.3499C41.9718 14.5862 41.7853 15.8148 41.5323 17.0299V9.23989C41.5323 8.02563 41.7668 6.82328 42.2225 5.70158C42.6782 4.57988 43.3461 3.56083 44.188 2.70268C45.0298 1.84454 46.0292 1.16414 47.129 0.700371C48.2287 0.236606 49.4073 -0.00142473 50.5973 -0.000110598C50.9712 -0.00404107 51.3447 0.0227117 51.7145 0.0798893Z" fill="white"/>
</g>
<g style="mix-blend-mode:overlay" opacity="0.6">
<path d="M74.7934 11.2799C74.7052 11.2589 74.3524 11.1889 73.7938 11.1199C73.4704 11.0799 73.0784 11.0589 72.6374 11.0489C72.1459 11.047 71.6549 11.0774 71.1674 11.1399C70.6047 11.2254 70.0481 11.3487 69.5014 11.5089C68.9122 11.7028 68.3415 11.9508 67.7962 12.2499C66.631 12.9006 65.618 13.8013 64.8268 14.8899C64.4221 15.4348 64.0801 16.0253 63.8076 16.6499C63.5451 17.2538 63.3447 17.8838 63.2098 18.5299C63.1365 18.8557 63.0873 19.1866 63.0628 19.5199L63.0334 19.7699L63.0236 19.8199L63.0138 19.8589L63.004 19.9899C62.9942 20.1599 62.9844 20.3199 62.9746 20.4899C62.9256 21.1499 62.8668 21.7799 62.7982 22.3499C62.6792 23.6425 62.4927 24.9276 62.2396 26.1999V19.8089C62.2394 18.5941 62.4738 17.3913 62.9293 16.2689C63.3848 15.1466 64.0526 14.1268 64.8943 13.2679C65.7361 12.4089 66.7355 11.7276 67.8354 11.2628C68.9353 10.798 70.1141 10.5588 71.3046 10.5589C72.5035 10.5539 73.6908 10.7993 74.7934 11.2799Z" fill="white"/>
</g>
<g style="mix-blend-mode:multiply" opacity="0.3">
<path d="M80.3598 33.7V58.54C80.3598 59.754 80.1254 60.9562 79.6701 62.0779C79.2148 63.1995 78.5474 64.2187 77.7062 65.0772C76.8648 65.9356 75.866 66.6166 74.7668 67.0812C73.6676 67.5458 72.4894 67.785 71.2997 67.785C70.1099 67.785 68.9317 67.5458 67.8326 67.0812C66.7333 66.6166 65.7345 65.9356 64.8932 65.0772C64.0519 64.2187 63.3845 63.1995 62.9292 62.0779C62.4739 60.9562 62.2396 59.754 62.2396 58.54C62.2396 58.54 62.269 58.75 62.3278 59.15C62.3525 59.3871 62.3984 59.6214 62.465 59.85C62.5257 60.1664 62.6108 60.4773 62.7198 60.78C63.217 62.3142 64.1068 63.6849 65.2974 64.7504C66.488 65.8158 67.936 66.5372 69.4916 66.84C69.815 66.9 70.1188 66.92 70.4422 66.96L70.991 66.97H71.3536L71.481 66.95C72.1721 66.9133 72.8564 66.7924 73.5194 66.59C74.89 66.1568 76.1285 65.3714 77.116 64.309C77.6193 63.7633 78.0539 63.1556 78.4096 62.5C78.7473 61.8354 79.0009 61.1298 79.1642 60.4C79.2516 60.045 79.3138 59.6841 79.3504 59.32L79.3896 58.7V58.54L79.3994 58.429V58.1199C79.3994 57.2799 79.4092 56.439 79.419 55.61C79.419 53.96 79.4778 52.32 79.4974 50.75C79.566 47.59 79.6738 44.64 79.8012 42.12C80.0364 37.059 80.3598 33.7 80.3598 33.7Z" fill="black"/>
</g>
</g>
</g>
<defs>
<filter id="filter0_d_2_27" x="-4" y="0" width="88.3598" height="76.225" filterUnits="userSpaceOnUse" color-interpolation-filters="sRGB">
<feFlood flood-opacity="0" result="BackgroundImageFix"/>
<feColorMatrix in="SourceAlpha" type="matrix" values="0 0 0 0 0 0 0 0 0 0 0 0 0 0 0 0 0 0 127 0" result="hardAlpha"/>
<feOffset dy="4"/>
<feGaussianBlur stdDeviation="2"/>
<feComposite in2="hardAlpha" operator="out"/>
<feColorMatrix type="matrix" values="0 0 0 0 0 0 0 0 0 0 0 0 0 0 0 0 0 0 0.25 0"/>
<feBlend mode="normal" in2="BackgroundImageFix" result="effect1_dropShadow_2_27"/>
<feBlend mode="normal" in="SourceGraphic" in2="effect1_dropShadow_2_27" result="shape"/>
</filter>
</defs>
</svg>
